<svg xmlns="http://www.w3.org/2000/svg" xmlns:xlink="http://www.w3.org/1999/xlink" width="209" zoomAndPan="magnify" viewBox="0 0 156.75 43.499998" height="58" preserveAspectRatio="xMidYMid meet" version="1.0"><defs><g/><clipPath id="1e0348357a"><path d="M 2.390625 2.257812 L 56.601562 2.257812 L 56.601562 42.359375 L 2.390625 42.359375 Z M 2.390625 2.257812 " clip-rule="nonzero"/></clipPath><clipPath id="a388a933c5"><path d="M 148 18 L 155.734375 18 L 155.734375 25 L 148 25 Z M 148 18 " clip-rule="nonzero"/></clipPath></defs><g clip-path="url(#1e0348357a)"><path fill="#f60d0d" d="M 2.390625 2.257812 L 56.601562 2.257812 L 56.601562 42.359375 L 2.390625 42.359375 Z M 2.390625 2.257812 " fill-opacity="1" fill-rule="nonzero"/></g><g fill="#f4f4f4" fill-opacity="1"><g transform="translate(0.104799, 32.444123)"><g><path d="M 16.015625 -30.890625 C 19.898438 -30.890625 23.09375 -30.101562 25.59375 -28.53125 C 28.09375 -26.957031 29.375 -24.625 29.4375 -21.53125 L 29.4375 -21 L 20.296875 -21 L 20.296875 -21.1875 C 20.296875 -22.0625 19.972656 -22.789062 19.328125 -23.375 C 18.679688 -23.96875 17.695312 -24.265625 16.375 -24.265625 C 15.070312 -24.265625 14.078125 -24.070312 13.390625 -23.6875 C 12.703125 -23.3125 12.359375 -22.84375 12.359375 -22.28125 C 12.359375 -21.488281 12.828125 -20.898438 13.765625 -20.515625 C 14.703125 -20.128906 16.21875 -19.734375 18.3125 -19.328125 C 20.75 -18.828125 22.753906 -18.300781 24.328125 -17.75 C 25.910156 -17.207031 27.285156 -16.316406 28.453125 -15.078125 C 29.628906 -13.847656 30.234375 -12.175781 30.265625 -10.0625 C 30.265625 -6.46875 29.050781 -3.800781 26.625 -2.0625 C 24.195312 -0.332031 20.957031 0.53125 16.90625 0.53125 C 12.164062 0.53125 8.476562 -0.257812 5.84375 -1.84375 C 3.207031 -3.4375 1.890625 -6.25 1.890625 -10.28125 L 11.125 -10.28125 C 11.125 -8.75 11.519531 -7.722656 12.3125 -7.203125 C 13.101562 -6.691406 14.335938 -6.4375 16.015625 -6.4375 C 17.253906 -6.4375 18.273438 -6.566406 19.078125 -6.828125 C 19.890625 -7.097656 20.296875 -7.644531 20.296875 -8.46875 C 20.296875 -9.207031 19.847656 -9.757812 18.953125 -10.125 C 18.054688 -10.488281 16.59375 -10.878906 14.5625 -11.296875 C 12.09375 -11.828125 10.046875 -12.378906 8.421875 -12.953125 C 6.804688 -13.523438 5.394531 -14.472656 4.1875 -15.796875 C 2.976562 -17.117188 2.375 -18.914062 2.375 -21.1875 C 2.375 -24.507812 3.660156 -26.957031 6.234375 -28.53125 C 8.816406 -30.101562 12.078125 -30.890625 16.015625 -30.890625 Z M 16.015625 -30.890625 "/></g></g></g><g fill="#f4f4f4" fill-opacity="1"><g transform="translate(26.526707, 42.745222)"><g><path d="M 20 -29.921875 C 21.851562 -29.921875 23.503906 -29.492188 24.953125 -28.640625 C 26.410156 -27.785156 27.539062 -26.609375 28.34375 -25.109375 C 29.15625 -23.617188 29.5625 -21.945312 29.5625 -20.09375 L 29.5625 -19.53125 C 29.5625 -17.664062 29.15625 -15.976562 28.34375 -14.46875 C 27.539062 -12.96875 26.410156 -11.789062 24.953125 -10.9375 C 23.503906 -10.082031 21.851562 -9.65625 20 -9.65625 L 12.828125 -9.65625 L 12.828125 0 L 3.21875 0 L 3.21875 -29.921875 Z M 12.828125 -16.65625 L 16.78125 -16.65625 C 17.800781 -16.65625 18.5625 -16.914062 19.0625 -17.4375 C 19.570312 -17.957031 19.828125 -18.664062 19.828125 -19.5625 L 19.828125 -19.921875 C 19.828125 -20.847656 19.570312 -21.5625 19.0625 -22.0625 C 18.5625 -22.570312 17.800781 -22.828125 16.78125 -22.828125 L 12.828125 -22.828125 Z M 12.828125 -16.65625 "/></g></g></g><g fill="#212121" fill-opacity="1"><g transform="translate(57.30691, 25.855058)"><g><path d="M 7.46875 12.597656 C 7.417969 12.597656 7.363281 12.597656 7.308594 12.597656 C 6.652344 12.597656 6.40625 12.570312 6.40625 11.914062 C 6.40625 11.152344 7.226562 9.925781 7.605469 9.433594 C 8.859375 7.769531 9.269531 7.523438 10.742188 6.132812 L 12.214844 4.824219 C 12.40625 4.691406 12.542969 4.609375 12.707031 4.445312 C 12.949219 4.28125 13.03125 4.144531 13.304688 4.0625 C 13.441406 5.617188 13.550781 6.460938 12.707031 8.152344 C 12.570312 8.507812 12.324219 8.804688 12.132812 9.160156 C 11.886719 9.542969 11.695312 9.761719 11.398438 10.117188 C 10.660156 11.097656 8.726562 12.597656 7.46875 12.597656 Z M 0 -3.246094 C 0 -1.691406 0.574219 -0.601562 1.746094 -0.164062 C 2.972656 0.300781 4.445312 0.246094 6.160156 0.273438 L 8.371094 0.4375 C 10.523438 0.679688 11.96875 1.226562 12.949219 3.082031 L 10.769531 4.878906 C 9.296875 6.160156 8.015625 7.28125 6.816406 8.941406 C 6 10.035156 5.535156 10.90625 5.535156 12.242188 C 5.535156 13.386719 6.816406 13.496094 7.578125 13.496094 C 10.277344 13.496094 14.367188 9.132812 14.367188 5.289062 C 14.367188 4.609375 14.230469 4.007812 14.097656 3.433594 C 14.3125 3.109375 16.359375 1.527344 16.929688 1.0625 L 18.675781 -0.355469 C 19.792969 -1.445312 20.722656 -2.179688 21.921875 -3.355469 C 23.148438 -4.582031 22.65625 -3.871094 22.65625 -4.582031 C 22.519531 -4.609375 22.410156 -4.664062 22.277344 -4.664062 C 22.058594 -4.664062 21.8125 -4.5 21.183594 -3.84375 C 20.832031 -3.488281 20.503906 -3.273438 20.148438 -2.917969 L 18.050781 -1.0625 C 16.824219 -0.0820312 14.859375 1.691406 13.660156 2.480469 C 13.359375 1.335938 11.613281 0.273438 10.550781 -0.0546875 C 8.644531 -0.679688 7.390625 -0.519531 5.453125 -0.628906 C 3.980469 -0.679688 1.691406 -0.628906 1.171875 -2.019531 C 0.898438 -2.808594 1.007812 -3.597656 1.117188 -4.445312 C 1.363281 -5.808594 2.261719 -8.316406 3.054688 -9.542969 C 3.570312 -10.496094 3.871094 -11.097656 4.609375 -12.214844 L 7.824219 -16.058594 C 8.070312 -16.359375 8.289062 -16.46875 8.5625 -16.714844 C 8.996094 -17.148438 9.707031 -17.585938 10.222656 -17.914062 C 10.960938 -18.320312 11.75 -18.621094 12.515625 -18.621094 C 13.386719 -18.621094 14.179688 -18.242188 14.722656 -17.203125 C 15.867188 -14.996094 15.40625 -11.886719 15.023438 -9.570312 C 14.886719 -9.023438 13.960938 -5.808594 14.804688 -5.808594 C 15.40625 -5.808594 15.515625 -6.542969 15.703125 -7.390625 C 16.222656 -9.324219 16.742188 -11.613281 16.742188 -13.769531 C 16.742188 -16.578125 15.542969 -19.578125 12.949219 -19.765625 C 10.277344 -19.765625 8.398438 -18.214844 6.570312 -16.441406 C 5.535156 -15.351562 4.0625 -13.550781 3.355469 -12.269531 C 1.773438 -9.789062 0 -6.160156 0 -3.246094 Z M 0 -3.246094 "/></g></g></g><g fill="#212121" fill-opacity="1"><g transform="translate(79.009046, 25.855058)"><g><path d="M 0 -3.734375 C 0 -2.019531 0.761719 -0.410156 2.644531 -0.410156 C 4.582031 -0.410156 6.296875 -2.289062 7.417969 -3.707031 C 7.550781 -3.871094 7.742188 -4.117188 7.824219 -4.308594 C 7.988281 -4.664062 7.851562 -4.960938 7.605469 -4.960938 C 7.46875 -4.960938 7.253906 -4.824219 7.0625 -4.554688 C 6.054688 -3.191406 4.554688 -1.308594 2.671875 -1.308594 C 2.019531 -1.308594 1.71875 -1.664062 1.527344 -2.152344 C 0.871094 -3.488281 1.828125 -5.890625 2.78125 -6.542969 C 2.835938 -6.082031 3.054688 -5.835938 3.273438 -5.835938 C 3.460938 -5.835938 3.625 -6.054688 3.625 -6.542969 C 3.625 -7.253906 3.300781 -7.632812 2.753906 -7.632812 C 1.171875 -7.632812 0 -5.015625 0 -3.734375 Z M 0 -3.734375 "/></g></g></g><g fill="#212121" fill-opacity="1"><g transform="translate(85.606928, 25.855058)"><g><path d="M 0.382812 -0.109375 C 1.226562 -0.109375 0.898438 -1.035156 1.0625 -1.746094 C 1.171875 -2.398438 1.417969 -2.945312 1.691406 -3.40625 C 2.125 -4.117188 2.261719 -4.117188 3.300781 -4.117188 C 3.597656 -4.117188 4.007812 -4.089844 4.363281 -4.089844 C 4.90625 -4.089844 5.34375 -4.144531 5.34375 -4.527344 C 5.34375 -4.878906 4.5 -4.933594 3.707031 -4.933594 C 3.246094 -4.933594 2.78125 -4.90625 2.535156 -4.90625 C 1.691406 -4.90625 1.527344 -4.390625 1.117188 -4.117188 C 1.117188 -4.472656 1.171875 -4.445312 1.171875 -4.824219 C 1.171875 -5.097656 1.171875 -5.425781 1.199219 -5.699219 C 1.28125 -6.460938 1.417969 -6.980469 0.679688 -6.980469 C 0.0820312 -6.980469 0.0273438 -4.144531 0.0273438 -3.652344 C 0.0546875 -2.972656 0.0273438 -2.289062 0.0546875 -1.636719 C 0.0546875 -1.445312 -0.164062 -0.109375 0.382812 -0.109375 Z M 0.382812 -0.109375 "/></g></g></g><g fill="#212121" fill-opacity="1"><g transform="translate(90.050959, 25.855058)"><g><path d="M 1.363281 -0.628906 C 0.761719 -1.882812 2.019531 -4.335938 2.207031 -5.125 C 3.164062 -4.5 2.480469 -0.925781 1.363281 -0.628906 Z M 0 -1.554688 C 0 -0.136719 0.601562 0.574219 1.308594 0.574219 C 2.125 0.574219 3.136719 -0.382812 3.542969 -2.261719 C 4.144531 -5.070312 2.835938 -5.535156 2.699219 -6.054688 C 2.835938 -6.269531 3.082031 -6.433594 3.164062 -6.625 C 3.246094 -6.84375 3.082031 -7.28125 2.726562 -7.28125 C 1.390625 -7.28125 0 -2.78125 0 -1.554688 Z M 0 -1.554688 "/></g></g></g><g fill="#212121" fill-opacity="1"><g transform="translate(94.84942, 25.855058)"><g><path d="M 0.0546875 -2.097656 C 0.0546875 -0.328125 0.109375 3.027344 1.582031 3.027344 C 2.261719 3.027344 2.78125 1.992188 3.082031 1.527344 C 3.679688 0.519531 4.417969 -1.390625 4.988281 -2.5625 C 5.125 -2.835938 5.972656 -4.417969 5.972656 -4.582031 C 5.972656 -4.71875 5.863281 -4.878906 5.726562 -4.878906 C 5.589844 -4.878906 5.425781 -4.769531 5.261719 -4.445312 C 4.390625 -2.890625 3.597656 -0.980469 2.78125 0.601562 C 2.480469 1.226562 2.097656 1.964844 1.5 2.289062 C 0.273438 -0.0546875 1.800781 -8.535156 2.5625 -11.289062 C 2.644531 -11.558594 3.355469 -13.140625 2.453125 -13.140625 C 1.746094 -13.140625 1.5 -11.777344 1.253906 -10.988281 C 0.574219 -8.480469 0.0546875 -4.796875 0.0546875 -2.097656 Z M 0.0546875 -2.097656 "/></g></g></g><g fill="#212121" fill-opacity="1"><g transform="translate(99.647882, 25.855058)"><g><path d="M 0.0546875 -2.097656 C 0.0546875 -0.328125 0.109375 3.027344 1.582031 3.027344 C 2.261719 3.027344 2.78125 1.992188 3.082031 1.527344 C 3.679688 0.519531 4.417969 -1.390625 4.988281 -2.5625 C 5.125 -2.835938 5.972656 -4.417969 5.972656 -4.582031 C 5.972656 -4.71875 5.863281 -4.878906 5.726562 -4.878906 C 5.589844 -4.878906 5.425781 -4.769531 5.261719 -4.445312 C 4.390625 -2.890625 3.597656 -0.980469 2.78125 0.601562 C 2.480469 1.226562 2.097656 1.964844 1.5 2.289062 C 0.273438 -0.0546875 1.800781 -8.535156 2.5625 -11.289062 C 2.644531 -11.558594 3.355469 -13.140625 2.453125 -13.140625 C 1.746094 -13.140625 1.5 -11.777344 1.253906 -10.988281 C 0.574219 -8.480469 0.0546875 -4.796875 0.0546875 -2.097656 Z M 0.0546875 -2.097656 "/></g></g></g><g fill="#212121" fill-opacity="1"><g transform="translate(104.446343, 25.855058)"><g><path d="M 7.28125 2.699219 C 6.789062 2.699219 6.054688 2.589844 5.753906 2.425781 C 5.753906 1.609375 6.40625 -1.527344 6.570312 -2.507812 C 6.980469 -4.472656 7.632812 -6.679688 8.289062 -8.644531 L 9.351562 -11.480469 C 10.386719 -14.125 13.003906 -18.8125 16.332031 -18.8125 C 18.621094 -18.8125 19.929688 -16.25 19.929688 -13.25 C 19.929688 -9.652344 18.402344 -5.5625 16.167969 -2.699219 C 14.257812 -0.109375 10.90625 2.699219 7.28125 2.699219 Z M 5.753906 -3 C 5.753906 -5.917969 5.890625 -8.914062 5.890625 -12.050781 C 5.890625 -13.878906 5.835938 -16.878906 4.28125 -16.878906 C 3.40625 -16.878906 2.617188 -15.105469 2.316406 -14.339844 C 1.636719 -12.597656 1.171875 -10.6875 1.171875 -8.699219 C 1.171875 -8.234375 1.0625 -8.070312 1.117188 -7.714844 C 1.253906 -6.597656 1.28125 -5.917969 1.691406 -4.824219 C 2.070312 -3.898438 2.589844 -3.597656 2.917969 -3.597656 C 3.21875 -3.597656 3.382812 -3.84375 3.21875 -4.117188 C 3.082031 -4.417969 2.535156 -4.308594 2.152344 -6.160156 C 1.964844 -7.253906 1.882812 -8.617188 2.042969 -9.84375 C 2.234375 -10.796875 2.480469 -12.214844 2.808594 -13.113281 C 3.136719 -13.90625 3.679688 -15.378906 4.28125 -15.757812 C 4.824219 -14.558594 4.527344 -10.578125 4.527344 -9.132812 C 4.527344 -7.390625 4.253906 -4.527344 4.28125 -2.835938 C 4.28125 -2.34375 4.226562 -2.179688 4.199219 -1.800781 C 4.144531 -1.445312 4.199219 -1.035156 4.171875 -0.679688 C 4.171875 -0.246094 4.089844 -0.191406 4.089844 0.273438 C 4.0625 1.308594 4.117188 1.636719 3.980469 1.636719 C 3.898438 1.636719 3.761719 1.5 3.515625 1.363281 C 3.40625 1.28125 3.273438 1.253906 3.191406 1.253906 C 2.78125 1.253906 2.671875 1.855469 3.328125 2.316406 C 3.542969 2.480469 3.789062 2.617188 3.980469 2.78125 C 3.980469 3.515625 3.925781 3.953125 3.925781 4.769531 C 3.925781 5.480469 3.84375 6.027344 3.84375 6.816406 C 3.84375 8.179688 3.542969 13.03125 3.84375 14.152344 C 4.007812 14.230469 4.144531 14.257812 4.28125 14.257812 C 4.960938 14.257812 4.796875 12.949219 4.933594 11.640625 C 5.015625 10.851562 5.042969 8.589844 5.152344 7.90625 L 5.535156 3.460938 C 6.027344 3.488281 6.488281 3.734375 7.363281 3.734375 C 12.816406 3.734375 17.96875 -1.9375 19.738281 -6.734375 C 20.914062 -9.816406 21.921875 -14.558594 19.929688 -17.667969 C 19.085938 -18.976562 17.859375 -19.765625 16.386719 -19.765625 C 14.449219 -19.765625 13.222656 -18.730469 11.914062 -17.421875 C 9.132812 -14.640625 7.035156 -8.316406 6.105469 -4.363281 L 5.78125 -3.054688 C 5.78125 -3.027344 5.753906 -3.027344 5.753906 -3 Z M 5.753906 -3 "/></g></g></g><g fill="#212121" fill-opacity="1"><g transform="translate(125.575928, 25.855058)"><g><path d="M 0.382812 -0.109375 C 1.226562 -0.109375 0.898438 -1.035156 1.0625 -1.746094 C 1.171875 -2.398438 1.417969 -2.945312 1.691406 -3.40625 C 2.125 -4.117188 2.261719 -4.117188 3.300781 -4.117188 C 3.597656 -4.117188 4.007812 -4.089844 4.363281 -4.089844 C 4.90625 -4.089844 5.34375 -4.144531 5.34375 -4.527344 C 5.34375 -4.878906 4.5 -4.933594 3.707031 -4.933594 C 3.246094 -4.933594 2.78125 -4.90625 2.535156 -4.90625 C 1.691406 -4.90625 1.527344 -4.390625 1.117188 -4.117188 C 1.117188 -4.472656 1.171875 -4.445312 1.171875 -4.824219 C 1.171875 -5.097656 1.171875 -5.425781 1.199219 -5.699219 C 1.28125 -6.460938 1.417969 -6.980469 0.679688 -6.980469 C 0.0820312 -6.980469 0.0273438 -4.144531 0.0273438 -3.652344 C 0.0546875 -2.972656 0.0273438 -2.289062 0.0546875 -1.636719 C 0.0546875 -1.445312 -0.164062 -0.109375 0.382812 -0.109375 Z M 0.382812 -0.109375 "/></g></g></g><g fill="#212121" fill-opacity="1"><g transform="translate(130.019959, 25.855058)"><g><path d="M 2.261719 0.109375 C 3.542969 0.109375 4.582031 -1.089844 5.234375 -1.773438 C 5.671875 -2.207031 7.308594 -4.035156 7.308594 -4.554688 C 7.308594 -4.796875 7.226562 -4.878906 7.117188 -4.878906 C 6.597656 -4.878906 5.152344 -2.945312 5.042969 -2.808594 C 4.636719 -2.289062 3.21875 -0.84375 2.34375 -0.84375 C 1.609375 -0.84375 1.308594 -2.453125 1.308594 -3.273438 C 1.308594 -6.054688 2.398438 -7.28125 1.144531 -7.28125 C 0.601562 -7.28125 0.328125 -6.054688 0.246094 -5.480469 C -0.0546875 -4.089844 0 -2.207031 0.65625 -0.980469 C 0.953125 -0.464844 1.527344 0.109375 2.261719 0.109375 Z M 1.390625 -10.714844 C 1.390625 -10.117188 1.746094 -9.84375 2.125 -9.84375 C 2.671875 -9.84375 3.246094 -10.441406 2.726562 -11.453125 C 2.5625 -11.75 2.371094 -11.859375 2.179688 -11.859375 C 1.773438 -11.859375 1.390625 -11.34375 1.390625 -10.714844 Z M 1.390625 -10.714844 "/></g></g></g><g fill="#212121" fill-opacity="1"><g transform="translate(136.236152, 25.855058)"><g><path d="M 1.445312 -2.207031 L 1.5 -2.207031 C 2.699219 -2.289062 3.734375 -6.160156 4.960938 -6.980469 C 4.960938 -6.160156 5.207031 -5.179688 6.054688 -5.179688 C 6.789062 -5.179688 7.769531 -6.597656 8.316406 -6.980469 C 8.316406 -5.398438 7.550781 -2.808594 8.34375 -0.816406 C 8.644531 -0.0273438 9.132812 0.273438 9.652344 0.273438 C 10.550781 0.273438 11.585938 -0.601562 12.296875 -1.636719 C 12.488281 -1.910156 12.597656 -2.042969 12.761719 -2.261719 C 12.921875 -2.535156 13.003906 -2.699219 13.167969 -2.945312 C 13.359375 -3.246094 13.960938 -4.117188 13.960938 -4.445312 C 13.960938 -4.636719 13.796875 -4.796875 13.6875 -4.796875 C 13.085938 -4.796875 12.949219 -4.28125 12.707031 -3.898438 C 11.996094 -2.726562 10.714844 -0.734375 9.925781 -0.734375 C 9.460938 -0.734375 9.160156 -1.335938 9.160156 -3 C 9.160156 -4.527344 9.652344 -7.445312 9.160156 -8.015625 C 9.023438 -8.179688 8.859375 -8.234375 8.699219 -8.234375 C 8.535156 -8.234375 8.371094 -8.179688 8.207031 -8.097656 C 7.90625 -7.933594 7.742188 -7.714844 7.496094 -7.445312 C 7.007812 -7.007812 6.378906 -6.214844 5.972656 -6.160156 C 5.972656 -7.035156 5.78125 -8.097656 4.960938 -8.097656 C 4.308594 -8.097656 3.515625 -6.707031 3.21875 -6.1875 L 1.9375 -4.035156 C 1.882812 -3.980469 1.855469 -3.953125 1.800781 -3.898438 C 1.800781 -6.652344 3.109375 -7.878906 1.71875 -7.878906 C 0.734375 -7.878906 -0.464844 -2.207031 1.445312 -2.207031 Z M 1.445312 -2.207031 "/></g></g></g><g clip-path="url(#a388a933c5)"><g fill="#212121" fill-opacity="1"><g transform="translate(148.968434, 25.855058)"><g><path d="M 1.253906 -4.933594 C 1.445312 -5.617188 2.34375 -6.679688 3.082031 -6.816406 C 3 -5.945312 1.9375 -5.289062 1.253906 -4.933594 Z M 0.0273438 -4.28125 C 0.0273438 -3.515625 0 -2.835938 0.65625 -2.179688 C 1.117188 -1.71875 1.664062 -1.527344 2.234375 -1.527344 C 3.898438 -1.527344 5.78125 -3.191406 6.789062 -4.199219 C 7.035156 -4.5 7.035156 -4.527344 6.953125 -4.933594 C 6.132812 -4.933594 6.570312 -4.824219 5.453125 -3.953125 C 5.261719 -3.816406 5.179688 -3.707031 4.960938 -3.542969 C 4.417969 -3.136719 3.273438 -2.34375 2.316406 -2.34375 C 1.992188 -2.34375 1.664062 -2.453125 1.417969 -2.699219 C 0.953125 -3.164062 1.007812 -3.597656 1.007812 -4.171875 C 1.855469 -4.226562 2.835938 -5.015625 3.273438 -5.507812 C 4.117188 -6.570312 4.117188 -7.660156 2.917969 -7.660156 C 1.609375 -7.660156 0.0273438 -5.644531 0.0273438 -4.28125 Z M 0.0273438 -4.28125 "/></g></g></g></g></svg>